# xmcd
#
# Track frame offsets:
#	150
#	16890
#	37335
#	48102
#	58792
#	70850
#	82940
#	106537
#	120882
#	141855
#	151792
#	166630
#	182415
#	199097
#	211580
#	226609
#	235112
#	246740
#	261205
#	271162
#	283520
#	290702
#	302567
#	313417
#
# Disc length: 4433 seconds
#
# Revision: 4
# Processed by: cddbd v1.5.2PL0 Copyright (c) Steve Scherf et al.
# Submitted via: EasyCDDAExtractor 12.1.0.1
#
DISCID=3f114f18
DTITLE=Various Artist - Crying in the Chapel [CD 1)
DYEAR=2002
DGENRE=Gospel
TTITLE0=The Jordanaires - Michael Row The Boat Ashore
TTITLE1=Etta James/Chor - Oh Happy Day
TTITLE2=The Golden Gate Quartett - Jesus The Ligth Of The World
TTITLE3=Mahalia Jackson - Nobody Knows The Trouble I've Seen
TTITLE4=The Fireside Family Singers and Orchester - The Bible Tells Me So
TTITLE5=The Jordanaires - Wings Of A Drove
TTITLE6=Cissy Housten - Without God
TTITLE7=The Johnny Thompson Singers - I'M Gonna Leave It In His Hands
TTITLE8=The Tennessee Gospel Sosiety - That Old-Time Religion
TTITLE9=The Four Internes/The Trupeters - In That Great Reunion
TTITLE10=Baswa Ba Tumela-Gospelensemble - Kgotso
TTITLE11=Harry Belafonte - March Down To Jordan
TTITLE12=The Myra Walker Singers - Soon And Very Soon
TTITLE13=The Golden Gate Quartett - Give Me Two Wings
TTITLE14=The Jordanaires - Swing Low,Sweet Chariot
TTITLE15=Mahalia Jackson - Didn't It Rain
TTITLE16=The Sunset Choir - Somebody Bigger Than You And I
TTITLE17=The Golden Gate Quartett - Come All Ye Faithful
TTITLE18=The Alabama Singers - Jesus Met  The Woman At The Well
TTITLE19=The Jordanaires - Will The Circle Be Unbroken
TTITLE20=Sister Rosetta Tharpe - Lily Of The Valley
TTITLE21=The Golden Gate Quartett - Shadrack
TTITLE22=The Jordanaires - When The Saints GO Marching In
TTITLE23=The Johnny Thompson Singers - Deep River
EXTD=YEAR: 2002 ID3G: 38
EXTT0=
EXTT1=
EXTT2=
EXTT3=
EXTT4=
EXTT5=
EXTT6=
EXTT7=
EXTT8=
EXTT9=
EXTT10=
EXTT11=
EXTT12=
EXTT13=
EXTT14=
EXTT15=
EXTT16=
EXTT17=
EXTT18=
EXTT19=
EXTT20=
EXTT21=
EXTT22=
EXTT23=
PLAYORDER=
